<svg xmlns="http://www.w3.org/2000/svg" width="400" height="295" viewBox="0 0 400 295"><defs><clipPath id="a"><path d="M40 10h350v245H40z"/></clipPath></defs><path fill="none" stroke="#000" d="M40 255V10M60.588 255V10M81.177 255V10M101.765 255V10M122.353 255V10M142.941 255V10M163.529 255V10M184.118 255V10M204.706 255V10M225.294 255V10M245.882 255V10M266.471 255V10M287.059 255V10M307.647 255V10M328.235 255V10M348.824 255V10M369.412 255V10M390 255V10M40 250.205h350M40 226.233h350M40 202.26h350M40 178.288h350M40 154.315h350M40 130.342h350M40 106.37h350M40 82.397h350M40 58.425h350M40 34.452h350M40 10.48h350" stroke-width="2" opacity=".1"/><path fill="none" stroke="#000" d="M101.765 255.205v-10M142.941 255.205v-10M184.118 255.205v-10M225.294 255.205v-10M266.471 255.205v-10M307.647 255.205v-10M348.824 255.205v-10M55.588 202.26h10M55.588 154.315h10M55.588 106.37h10M55.588 58.425h10M55.588 10.48h10"/><path fill="none" stroke="#000" d="M384.45 255.805c.35-2.1 4.2-5.25 5.25-5.6-1.05-.35-4.9-3.5-5.25-5.6" stroke-width="2" stroke-linejoin="round" stroke-linecap="round"/><path fill="none" stroke="#000" d="M40 250.205h348.95" stroke-width="2"/><path fill="none" stroke="#000" d="M66.938 16.3c-2.1-.35-5.25-4.2-5.6-5.25-.35 1.05-3.5 4.9-5.6 5.25" stroke-width="2" stroke-linejoin="round" stroke-linecap="round"/><path fill="none" stroke="#000" d="M60.588 255V11.05" stroke-width="2"/><ellipse cx="101.765" cy="240.137" rx="3.5" ry="3.5" fill="#11accd" stroke="#11accd" stroke-width="2" clip-path="url(#a)" stroke-dasharray="0"/><path fill="none" stroke="#11accd" d="M101.765 240.137l41.176-36.438" stroke-width="2" stroke-dasharray="0"/><ellipse cx="142.941" cy="203.699" rx="3.5" ry="3.5" fill="#11accd" stroke="#11accd" stroke-width="2" clip-path="url(#a)" stroke-dasharray="0"/><path fill="none" stroke="#11accd" d="M142.941 203.699l41.177-28.767" stroke-width="2" stroke-dasharray="0"/><ellipse cx="184.118" cy="174.932" rx="3.5" ry="3.5" fill="#11accd" stroke="#11accd" stroke-width="2" clip-path="url(#a)" stroke-dasharray="0"/><path fill="none" stroke="#11accd" d="M184.118 174.932l41.176-27.329" stroke-width="2" stroke-dasharray="0"/><ellipse cx="225.294" cy="147.603" rx="3.5" ry="3.5" fill="#11accd" stroke="#11accd" stroke-width="2" clip-path="url(#a)" stroke-dasharray="0"/><path fill="none" stroke="#11accd" d="M225.294 147.603l41.177-49.863" stroke-width="2" stroke-dasharray="0"/><ellipse cx="266.471" cy="97.74" rx="3.5" ry="3.5" fill="#11accd" stroke="#11accd" stroke-width="2" clip-path="url(#a)" stroke-dasharray="0"/><path fill="none" stroke="#11accd" d="M266.47 97.74l41.177-44.11" stroke-width="2" stroke-dasharray="0"/><ellipse cx="307.647" cy="53.63" rx="3.5" ry="3.5" fill="#11accd" stroke="#11accd" stroke-width="2" clip-path="url(#a)" stroke-dasharray="0"/></svg>
